<?xml version="1.0" standalone="no"?><svg xmlns="http://www.w3.org/2000/svg" viewBox="0 0 1440 320"><path fill="#36393F" fill-opacity="1" d="M0,288L34.3,272C68.6,256,137,224,206,186.7C274.3,149,343,107,411,96C480,85,549,107,617,128C685.7,149,754,171,823,186.7C891.4,203,960,213,1029,186.7C1097.1,160,1166,96,1234,96C1302.9,96,1371,160,1406,192L1440,224L1440,0L1405.7,0C1371.4,0,1303,0,1234,0C1165.7,0,1097,0,1029,0C960,0,891,0,823,0C754.3,0,686,0,617,0C548.6,0,480,0,411,0C342.9,0,274,0,206,0C137.1,0,69,0,34,0L0,0Z"></path></svg>